PathFileType	4	(x/y/z)	A01_T0012.trc
DataRate	CameraRate	NumFrames	NumMarkers	Units	OrigDataRate	OrigDataStartFrame	OrigNumFrames
240	240	9	47	mm	240	151	1200
Frame#	Time	R_AC			L_AC			R_ASIS			L_ASIS			R_PSIS			L_PSIS			R_GT			L_GT			R_IC			L_IC			SACRAL			R_THIGH_PROX_POST			L_THIGH_PROX_POST			R_THIGH_PROX_ANT			L_THIGH_PROX_ANT			R_THIGH_DIST_POST			L_THIGH_DIST_POST			R_THIGH_DIST_ANT			L_THIGH_DIST_ANT			R_LAT_KNEE			R_MED_KNEE			L_LAT_KNEE			L_MED_KNEE			L_PROS_PROX_ANT			L_PROS_PROX_POST			L_PROS_DIST_ANT			L_PROS_DIST_POST			R_LL_PROX_ANT			R_LL_PROX_POST			R_LL_DIST_POST			R_LL_DIST_ANT			R_LAT_ANK			R_MED_ANK			L_MED_ANK			L_LAT_ANK			L_TOE			R_TOE			L_5TH_MET			L_1ST_MET			R_1ST_MET			R_5TH_MET			R_HEEL_SUP			L_HEEL_SUP			R_HEEL_LAT			L_HEEL_LAT			L_HEEL_MED			R_HEEL_MED			
		X1	Y1	Z1	X2	Y2	Z2	X3	Y3	Z3	X4	Y4	Z4	X5	Y5	Z5	X6	Y6	Z6	X7	Y7	Z7	X8	Y8	Z8	X9	Y9	Z9	X10	Y10	Z10	X11	Y11	Z11	X12	Y12	Z12	X13	Y13	Z13	X14	Y14	Z14	X15	Y15	Z15	X16	Y16	Z16	X17	Y17	Z17	X18	Y18	Z18	X19	Y19	Z19	X20	Y20	Z20	X21	Y21	Z21	X22	Y22	Z22	X23	Y23	Z23	X24	Y24	Z24	X25	Y25	Z25	X26	Y26	Z26	X27	Y27	Z27	X28	Y28	Z28	X29	Y29	Z29	X30	Y30	Z30	X31	Y31	Z31	X32	Y32	Z32	X33	Y33	Z33	X34	Y34	Z34	X35	Y35	Z35	X36	Y36	Z36	X37	Y37	Z37	X38	Y38	Z38	X39	Y39	Z39	X40	Y40	Z40	X41	Y41	Z41	X42	Y42	Z42	X43	Y43	Z43	X44	Y44	Z44	X45	Y45	Z45	X46	Y46	Z46	X47	Y47	Z47	

151	0.62552	588.89	1570.4	539.82	639.2	1586.7	119.87	694.76	1082.3	530.2	761.21	1068.6	176.54	505.22	1075.4	365.71	534.57	1089.2	239.84	630.95	968.08	552.8	712.96	977.64	120.6	635.35	1177.8	538.01	721.02	1172	134.53	505.93	1052.8	295.87	598.56	840.4	531.48	712.62	837.42	128.9	665.34	864.31	546.52	777.73	834.04	159.43	610.94	751.83	527.97	725.07	762.2	138.52	675.17	772.95	544.46	785.11	760.42	165.07	641.53	561.04	506.99	690.29	551.38	381.85	723.53	582.13	156.23	736.96	554.39	311.94	749.25	490.94	160.39	696.16	504.06	148.94	728.7	438.23	160.53	676.01	444.05	150.26	580.36	385.21	530.79	517.65	403.7	497.79	521.85	320.51	497.01	572.62	310.22	518.71	522.03	110.39	491.05	559.53	115.49	390.79	599.26	147.47	201.59	571.42	152.21	134.71	793.82	75.268	150.9	766.23	72.485	470	679.72	54.467	78.766	711.02	57.428	206.46	690.23	57.641	410.89	641.42	45.811	538.94	440.03	69.272	420.95	474.96	110.11	165.98	443	45.054	456.14	480.45	81.347	134.49	489.4	78.692	197.15	454.63	43.558	395.03
152	0.62969	588.89	1570.4	539.82	639.16	1586.7	119.87	694.78	1082.3	530.2	761.2	1068.6	176.52	505.22	1075.4	365.72	534.55	1089.2	239.84	630.97	968.08	552.8	712.94	977.64	120.59	635.37	1177.8	538.01	720.99	1172	134.53	505.92	1052.8	295.88	598.57	840.4	531.48	712.6	837.42	128.89	665.35	864.31	546.52	777.72	834.04	159.41	610.95	751.83	527.98	725.05	762.2	138.51	675.19	772.95	544.46	785.1	760.43	165.05	641.53	561.04	506.98	690.29	551.38	381.84	723.52	582.13	156.21	736.95	554.4	311.92	749.24	490.94	160.38	696.16	504.06	148.93	728.7	438.23	160.52	676.01	444.05	150.24	580.36	385.21	530.78	517.65	403.7	497.79	521.85	320.51	497.01	572.63	310.22	518.71	522.03	110.39	491.04	559.53	115.49	390.79	599.26	147.47	201.59	571.42	152.21	134.71	793.82	75.268	150.9	766.22	72.486	470	679.71	54.465	78.767	711.02	57.427	206.46	690.23	57.642	410.89	641.42	45.811	538.94	440.02	69.279	420.94	474.96	110.11	165.98	443	45.054	456.14	480.45	81.342	134.49	489.4	78.691	197.15	454.61	43.568	395.03
153	0.63386	588.9	1570.4	539.82	639.14	1586.7	119.87	694.8	1082.3	530.19	761.18	1068.6	176.51	505.22	1075.4	365.73	534.54	1089.2	239.85	630.99	968.08	552.8	712.92	977.63	120.57	635.39	1177.7	538.01	720.96	1172	134.52	505.92	1052.8	295.89	598.58	840.4	531.48	712.58	837.42	128.87	665.37	864.31	546.52	777.7	834.04	159.39	610.97	751.83	527.98	725.04	762.2	138.49	675.2	772.95	544.45	785.09	760.43	165.03	641.53	561.04	506.98	690.28	551.38	381.84	723.52	582.13	156.2	736.95	554.4	311.91	749.24	490.94	160.36	696.15	504.06	148.91	728.7	438.23	160.5	676	444.05	150.23	580.36	385.21	530.78	517.65	403.7	497.78	521.86	320.51	497.01	572.63	310.22	518.71	522.03	110.39	491.04	559.53	115.49	390.79	599.26	147.47	201.59	571.42	152.21	134.71	793.82	75.267	150.9	766.22	72.488	470	679.71	54.464	78.767	711.02	57.427	206.46	690.23	57.643	410.89	641.42	45.81	538.94	440	69.285	420.93	474.96	110.11	165.98	443	45.055	456.14	480.45	81.337	134.49	489.4	78.689	197.15	454.6	43.577	395.02
154	0.63803	588.9	1570.4	539.82	639.12	1586.7	119.88	694.82	1082.3	530.18	761.16	1068.6	176.49	505.23	1075.4	365.74	534.53	1089.2	239.86	631.01	968.08	552.8	712.9	977.63	120.56	635.4	1177.7	538.01	720.93	1172	134.52	505.91	1052.8	295.9	598.6	840.4	531.48	712.56	837.42	128.86	665.39	864.31	546.51	777.69	834.04	159.37	610.98	751.83	527.98	725.02	762.2	138.48	675.21	772.95	544.45	785.07	760.43	165.01	641.53	561.04	506.97	690.28	551.38	381.83	723.51	582.13	156.18	736.95	554.4	311.9	749.24	490.94	160.35	696.15	504.06	148.9	728.69	438.23	160.49	676	444.05	150.22	580.36	385.21	530.78	517.66	403.7	497.78	521.86	320.51	497.01	572.64	310.22	518.71	522.03	110.4	491.04	559.53	115.49	390.79	599.26	147.47	201.59	571.42	152.21	134.71	793.81	75.267	150.9	766.22	72.489	470	679.71	54.462	78.767	711.02	57.428	206.46	690.23	57.645	410.89	641.42	45.809	538.94	440	69.29	420.92	474.96	110.11	165.98	443	45.055	456.14	480.44	81.333	134.49	489.4	78.688	197.15	454.59	43.585	395.02
155	0.6422	588.9	1570.4	539.82	639.11	1586.7	119.88	694.84	1082.3	530.17	761.14	1068.6	176.48	505.23	1075.4	365.76	534.52	1089.2	239.86	631.03	968.08	552.79	712.88	977.63	120.55	635.42	1177.7	538.01	720.9	1172	134.51	505.91	1052.8	295.91	598.61	840.41	531.49	712.55	837.42	128.85	665.4	864.31	546.51	777.67	834.04	159.35	610.99	751.84	527.98	725.01	762.2	138.47	675.22	772.95	544.45	785.06	760.44	164.99	641.53	561.04	506.97	690.28	551.38	381.82	723.51	582.12	156.16	736.95	554.41	311.88	749.24	490.94	160.34	696.15	504.06	148.89	728.69	438.23	160.48	676	444.04	150.21	580.36	385.22	530.78	517.66	403.7	497.78	521.86	320.51	497.01	572.64	310.22	518.71	522.03	110.4	491.04	559.54	115.49	390.79	599.26	147.47	201.59	571.42	152.21	134.71	793.81	75.267	150.89	766.22	72.49	470	679.71	54.461	78.767	711.02	57.428	206.46	690.23	57.646	410.89	641.42	45.809	538.94	439.99	69.295	420.92	474.96	110.11	165.98	443	45.056	456.14	480.44	81.33	134.5	489.4	78.686	197.15	454.58	43.592	395.01
156	0.64637	588.9	1570.4	539.83	639.1	1586.7	119.88	694.86	1082.3	530.16	761.12	1068.6	176.46	505.23	1075.4	365.77	534.5	1089.2	239.87	631.06	968.08	552.79	712.86	977.63	120.54	635.44	1177.7	538.01	720.87	1172	134.51	505.9	1052.8	295.92	598.63	840.41	531.49	712.53	837.42	128.84	665.42	864.32	546.51	777.66	834.04	159.33	611	751.84	527.98	724.99	762.2	138.46	675.23	772.95	544.45	785.05	760.44	164.98	641.53	561.04	506.96	690.27	551.39	381.82	723.51	582.12	156.15	736.95	554.41	311.87	749.23	490.94	160.33	696.14	504.06	148.88	728.69	438.23	160.47	675.99	444.04	150.2	580.37	385.22	530.77	517.66	403.7	497.78	521.87	320.51	497	572.64	310.22	518.71	522.03	110.4	491.04	559.54	115.49	390.79	599.26	147.47	201.59	571.42	152.21	134.71	793.81	75.266	150.89	766.22	72.491	470	679.71	54.461	78.768	711.02	57.428	206.46	690.23	57.647	410.89	641.42	45.808	538.94	439.98	69.299	420.92	474.96	110.1	165.98	443	45.056	456.14	480.44	81.326	134.5	489.4	78.686	197.15	454.58	43.598	395.01
157	0.65054	588.9	1570.4	539.83	639.1	1586.6	119.88	694.88	1082.3	530.15	761.1	1068.6	176.45	505.24	1075.4	365.78	534.49	1089.2	239.88	631.08	968.08	552.79	712.83	977.63	120.52	635.46	1177.7	538.01	720.85	1172	134.5	505.9	1052.8	295.93	598.64	840.41	531.49	712.51	837.42	128.83	665.43	864.32	546.5	777.64	834.04	159.32	611.01	751.84	527.99	724.97	762.2	138.45	675.25	772.95	544.44	785.04	760.44	164.96	641.54	561.05	506.96	690.27	551.39	381.81	723.5	582.12	156.14	736.95	554.42	311.86	749.23	490.94	160.32	696.14	504.06	148.87	728.69	438.23	160.46	675.99	444.04	150.19	580.37	385.22	530.77	517.67	403.7	497.78	521.87	320.51	497	572.65	310.22	518.71	522.03	110.4	491.04	559.54	115.49	390.79	599.26	147.47	201.59	571.41	152.21	134.71	793.81	75.266	150.89	766.22	72.492	470	679.71	54.461	78.768	711.02	57.429	206.46	690.23	57.647	410.89	641.42	45.808	538.94	439.98	69.302	420.91	474.96	110.1	165.99	443	45.057	456.14	480.44	81.324	134.5	489.4	78.685	197.15	454.57	43.603	395.01
158	0.65471	588.91	1570.4	539.83	639.1	1586.6	119.89	694.9	1082.3	530.14	761.09	1068.6	176.43	505.24	1075.4	365.79	534.48	1089.2	239.89	631.1	968.08	552.79	712.81	977.63	120.51	635.48	1177.7	538	720.82	1172	134.49	505.89	1052.7	295.95	598.66	840.41	531.49	712.49	837.42	128.82	665.45	864.32	546.5	777.63	834.04	159.3	611.03	751.85	527.99	724.96	762.2	138.44	675.26	772.95	544.44	785.03	760.45	164.94	641.54	561.05	506.96	690.27	551.39	381.8	723.5	582.12	156.13	736.95	554.42	311.85	749.23	490.94	160.31	696.14	504.06	148.86	728.68	438.23	160.45	675.99	444.04	150.19	580.37	385.22	530.77	517.67	403.7	497.78	521.87	320.51	497	572.65	310.22	518.71	522.03	110.4	491.04	559.54	115.49	390.79	599.26	147.47	201.59	571.41	152.21	134.71	793.81	75.266	150.89	766.22	72.492	470	679.71	54.461	78.768	711.02	57.429	206.46	690.23	57.648	410.89	641.42	45.807	538.94	439.97	69.306	420.91	474.96	110.1	165.99	443	45.058	456.14	480.44	81.321	134.51	489.4	78.685	197.16	454.56	43.609	395
159	0.65888	588.91	1570.4	539.84	639.1	1586.6	119.89	694.92	1082.3	530.14	761.07	1068.6	176.42	505.25	1075.4	365.81	534.47	1089.2	239.9	631.12	968.08	552.79	712.79	977.63	120.5	635.49	1177.7	538	720.79	1172	134.49	505.89	1052.7	295.96	598.67	840.42	531.49	712.48	837.42	128.81	665.47	864.32	546.5	777.61	834.05	159.29	611.04	751.85	527.99	724.95	762.2	138.43	675.27	772.95	544.44	785.02	760.45	164.93	641.54	561.05	506.95	690.27	551.39	381.8	723.5	582.12	156.12	736.95	554.42	311.83	749.23	490.94	160.3	696.14	504.06	148.85	728.68	438.23	160.44	675.98	444.05	150.18	580.38	385.22	530.77	517.68	403.7	497.77	521.88	320.51	497	572.66	310.23	518.71	522.03	110.4	491.05	559.54	115.49	390.79	599.26	147.47	201.59	571.41	152.21	134.71	793.81	75.265	150.89	766.22	72.493	470	679.71	54.462	78.769	711.02	57.43	206.46	690.23	57.649	410.89	641.43	45.807	538.94	439.97	69.309	420.91	474.96	110.1	165.99	443	45.058	456.14	480.44	81.319	134.51	489.4	78.685	197.16	454.56	43.614	395
